<svg width="18" height="18" viewBox="0 0 18 18" fill="none" xmlns="http://www.w3.org/2000/svg">
<path d="M8.99999 18C7.755 18 6.585 17.7636 5.49 17.2908C4.395 16.818 3.4425 16.1769 2.6325 15.3675C1.8225 14.5581 1.1814 13.6056 0.709201 12.51C0.237001 11.4144 0.000601139 10.2444 1.13924e-06 9C-0.00059886 7.7556 0.235801 6.5856 0.709201 5.49C1.1826 4.3944 1.8237 3.4419 2.6325 2.6325C3.4413 1.8231 4.3938 1.182 5.49 0.7092C6.5862 0.2364 7.7562 0 8.99999 0C10.2438 0 11.4138 0.2364 12.51 0.7092C13.6062 1.182 14.5587 1.8231 15.3675 2.6325C16.1763 3.4419 16.8177 4.3944 17.2917 5.49C17.7657 6.5856 18.0018 7.7556 18 9V10.305C18 11.19 17.6964 11.9439 17.0892 12.5667C16.482 13.1895 15.7356 13.5006 14.85 13.5C14.325 13.5 13.83 13.3875 13.365 13.1625C12.9 12.9375 12.51 12.615 12.195 12.195C11.76 12.63 11.2686 12.9564 10.7208 13.1742C10.173 13.392 9.59939 13.5006 8.99999 13.5C7.755 13.5 6.6939 13.0611 5.8167 12.1833C4.9395 11.3055 4.5006 10.2444 4.5 9C4.4994 7.7556 4.9383 6.6945 5.8167 5.8167C6.6951 4.9389 7.7562 4.5 8.99999 4.5C10.2438 4.5 11.3052 4.9389 12.1842 5.8167C13.0632 6.6945 13.5018 7.7556 13.5 9V10.305C13.5 10.695 13.6275 11.025 13.8825 11.295C14.1375 11.565 14.46 11.7 14.85 11.7C15.24 11.7 15.5625 11.565 15.8175 11.295C16.0725 11.025 16.2 10.695 16.2 10.305V9C16.2 6.99 15.5025 5.2875 14.1075 3.8925C12.7125 2.4975 11.01 1.8 8.99999 1.8C6.99 1.8 5.2875 2.4975 3.8925 3.8925C2.4975 5.2875 1.8 6.99 1.8 9C1.8 11.01 2.4975 12.7125 3.8925 14.1075C5.2875 15.5025 6.99 16.2 8.99999 16.2H13.5V18H8.99999ZM8.99999 11.7C9.74999 11.7 10.3875 11.4375 10.9125 10.9125C11.4375 10.3875 11.7 9.75 11.7 9C11.7 8.25 11.4375 7.6125 10.9125 7.0875C10.3875 6.5625 9.74999 6.3 8.99999 6.3C8.25 6.3 7.6125 6.5625 7.0875 7.0875C6.5625 7.6125 6.3 8.25 6.3 9C6.3 9.75 6.5625 10.3875 7.0875 10.9125C7.6125 11.4375 8.25 11.7 8.99999 11.7Z" fill="white"/>
</svg>
