<svg width="22" height="26" viewBox="0 0 22 26" fill="none" xmlns="http://www.w3.org/2000/svg">
<path d="M2.20007 26C1.79745 26 1.39704 25.87 1.04283 25.6126C0.724207 25.3789 0.461243 25.0531 0.278776 24.666C0.0963089 24.2788 0.000362681 23.8431 0 23.4V2.59958C0 1.69737 0.396012 0.86015 1.04283 0.386941C1.36216 0.154915 1.72618 0.0226799 2.10065 0.00266718C2.47512 -0.0173455 2.84775 0.075522 3.1835 0.272539L20.784 10.6727C21.1495 10.8891 21.4568 11.2213 21.6715 11.6323C21.8863 12.0432 22 12.5167 22 12.9998C22 13.4828 21.8863 13.9563 21.6715 14.3673C21.4568 14.7782 21.1495 15.1105 20.784 15.3268L3.1835 25.727C2.87549 25.909 2.53448 26 2.20007 26Z" fill="white"/>
</svg>
