<svg width="35" height="35" viewBox="0 0 35 35" fill="none" xmlns="http://www.w3.org/2000/svg">
<path d="M27.825 15.575C22.225 12.25 12.8625 11.9 7.525 13.5625C6.65 13.825 5.775 13.3 5.5125 12.5125C5.25 11.6375 5.775 10.7625 6.5625 10.5C12.775 8.6625 23.0125 9.0125 29.4875 12.8625C30.275 13.3 30.5375 14.35 30.1 15.1375C29.6625 15.75 28.6125 16.0125 27.825 15.575ZM27.65 20.475C27.2125 21.0875 26.425 21.35 25.8125 20.9125C21.0875 18.025 13.9125 17.15 8.4 18.9C7.7 19.075 6.9125 18.725 6.7375 18.025C6.5625 17.325 6.9125 16.5375 7.6125 16.3625C14 14.4375 21.875 15.4 27.3 18.725C27.825 18.9875 28.0875 19.8625 27.65 20.475ZM25.55 25.2875C25.2 25.8125 24.5875 25.9875 24.0625 25.6375C19.95 23.1 14.7875 22.575 8.6625 23.975C8.05 24.15 7.525 23.7125 7.35 23.1875C7.175 22.575 7.6125 22.05 8.1375 21.875C14.7875 20.3875 20.5625 21 25.1125 23.8C25.725 24.0625 25.8125 24.7625 25.55 25.2875ZM17.5 0C15.2019 0 12.9262 0.452651 10.803 1.33211C8.67984 2.21157 6.75066 3.50061 5.12563 5.12563C1.84374 8.40752 0 12.8587 0 17.5C0 22.1413 1.84374 26.5925 5.12563 29.8744C6.75066 31.4994 8.67984 32.7884 10.803 33.6679C12.9262 34.5474 15.2019 35 17.5 35C22.1413 35 26.5925 33.1563 29.8744 29.8744C33.1563 26.5925 35 22.1413 35 17.5C35 15.2019 34.5474 12.9262 33.6679 10.803C32.7884 8.67984 31.4994 6.75066 29.8744 5.12563C28.2493 3.50061 26.3202 2.21157 24.197 1.33211C22.0738 0.452651 19.7981 0 17.5 0Z" fill="white"/>
</svg>
